Coordinates
version=1
nRows=6
nColumns=38
inDegrees=yes

Units are S.I. units (second, meters, Newtons, ...)
Angles are in degrees.

endheader
time	pelvis_tilt	pelvis_list	pelvis_rotation	pelvis_tx	pelvis_ty	pelvis_tz	hip_flexion_r	hip_adduction_r	hip_rotation_r	knee_angle_r	ankle_angle_r	subtalar_angle_r	mtp_angle_r	hip_flexion_l	hip_adduction_l	hip_rotation_l	knee_angle_l	ankle_angle_l	subtalar_angle_l	mtp_angle_l	lumbar_extension	lumbar_bending	lumbar_rotation	arm_flex_r	arm_add_r	arm_rot_r	elbow_flex_r	pro_sup_r	wrist_flex_r	wrist_dev_r	arm_flex_l	arm_add_l	arm_rot_l	elbow_flex_l	pro_sup_l	wrist_flex_l	wrist_dev_l
      2.00000000	      0.38094699	      1.72279036	     -0.80003451	     -0.82582258	      0.91702592	      0.22077235	     27.26543700	     -0.89504594	     -4.03714289	    -48.17417894	     -2.58860121	    -13.22759530	     14.20230060	     -0.47149110	      6.27627766	      5.48145350	    -15.97846074	     11.17493286	     -0.66972050	      2.48691746	     -6.11382721	     -1.28698950	     -6.20688820	     -6.35638441	    -17.27197438	      9.12737863	     23.06133948	     86.51662706	      0.00000000	      0.00000000	     -4.02288356	    -18.05770873	     10.94972309	     31.05888494	     86.51662706	      0.00000000	      0.00000000
      2.01000000	      0.18446550	      1.87358989	     -0.82448263	     -0.81340210	      0.91566027	      0.22133212	     28.00263044	     -1.02682492	     -3.89680301	    -45.24078940	     -2.13603962	    -12.92421627	     14.06042717	     -1.63624758	      6.37992173	      5.57291146	    -15.04028832	     11.43629779	     -0.54239811	      2.62427263	     -5.83087351	     -1.43630230	     -6.41605171	     -6.70356059	    -17.18139665	      9.17560731	     23.00262513	     86.51662706	      0.00000000	      0.00000000	     -3.69100615	    -18.33845496	     10.96875308	     31.22409952	     86.51662706	      0.00000000	      0.00000000
      2.02000000	      0.22697024	      1.95944973	     -0.77162312	     -0.80100008	      0.91478711	      0.22178540	     28.35928937	     -1.15214616	     -3.96142935	    -42.10122604	     -1.82480649	    -12.31055688	     13.81554495	     -3.01538718	      6.40767905	      5.69428035	    -14.17335984	     11.69273577	     -0.40017630	      2.71727976	     -5.89460836	     -1.50192438	     -6.67245663	     -6.90839659	    -17.06164097	      9.12509043	     22.70538112	     86.51662706	      0.00000000	      0.00000000	     -3.30837595	    -18.60176336	     10.97336870	     31.56795499	     86.51662706	      0.00000000	      0.00000000
      2.03000000	      0.43256044	      1.99307875	     -0.66112086	     -0.78854998	      0.91419603	      0.22223616	     28.42787508	     -1.25834937	     -4.18548286	    -38.79862733	     -1.60426644	    -11.37818108	     13.48711732	     -4.53500131	      6.36949422	      5.83358960	    -13.37334510	     11.94819385	     -0.24360286	      2.77963519	     -6.19248415	     -1.50326229	     -6.95900191	     -7.01010684	    -16.92223380	      9.00574278	     22.23857026	     86.51662706	      0.00000000	      0.00000000	     -2.89282473	    -18.85080096	     10.96937052	     32.02763434	     86.51662706	      0.00000000	      0.00000000
      2.04000000	      0.71380432	      1.98711732	     -0.51561572	     -0.77601926	      0.91354514	      0.22276961	     28.31714160	     -1.33317717	     -4.52300230	    -35.39209436	     -1.41695610	    -10.12746671	     13.09944356	     -6.10651408	      6.27560411	      5.97810952	    -12.64015988	     12.20690434	     -0.07218160	      2.82713557	     -6.59693724	     -1.46055856	     -7.25719153	     -7.05309577	    -16.77427387	      8.85220734	     21.68142028	     86.51662706	      0.00000000	      0.00000000	     -2.46426174	    -19.08778469	     10.96475833	     32.53013106	     86.51662706	      0.00000000	      0.00000000
      2.05000000	      0.99307106	      1.95312077	     -0.35598837	     -0.76341282	      0.91252994	      0.22340198	     28.12690565	     -1.37123132	     -4.94066088	    -31.95136475	     -1.21266762	     -8.57617177	     12.67701134	     -7.64689874	      6.13521369	      6.11802282	    -11.98133545	     12.47098737	      0.11598802	      2.87437536	     -6.99816007	     -1.39049702	     -7.55218294	     -7.07577655	    -16.62762882	      8.69609612	     21.10505672	     86.51662706	      0.00000000	      0.00000000	     -2.03905889	    -19.31248530	     10.96817681	     33.00918837	     86.51662706	      0.00000000	      0.00000000
